<svg width="14" height="14" viewBox="0 0 14 14" fill="none" xmlns="http://www.w3.org/2000/svg">
<path fill-rule="evenodd" clip-rule="evenodd" d="M1.17242 0.199191C0.904212 -0.066397 0.469362 -0.066397 0.201155 0.199191C-0.0670518 0.464779 -0.0670517 0.895382 0.201155 1.16097L6.09792 7.00016L0.201288 12.8392C-0.0669187 13.1048 -0.0669187 13.5354 0.201288 13.801C0.469495 14.0666 0.904345 14.0666 1.17255 13.801L7.06919 7.96194L12.8276 13.6641C13.0958 13.9297 13.5306 13.9297 13.7988 13.6641C14.0671 13.3985 14.067 12.9679 13.7988 12.7023L8.04045 7.00016L13.799 1.29786C14.0672 1.03228 14.0672 0.601672 13.799 0.336084C13.5308 0.0704956 13.0959 0.0704958 12.8277 0.336084L7.06919 6.03838L1.17242 0.199191Z" fill="#828282"/>
</svg>
