<svg width="18" height="22" viewBox="0 0 18 22" fill="none" xmlns="http://www.w3.org/2000/svg">
<path d="M17 9.18182C17 15.5455 9 21 9 21C9 21 1 15.5455 1 9.18182C1 7.01187 1.84285 4.93079 3.34315 3.3964C4.84344 1.86201 6.87827 1 9 1C11.1217 1 13.1566 1.86201 14.6569 3.3964C16.1571 4.93079 17 7.01187 17 9.18182Z" stroke="white" stroke-width="1.3" stroke-linecap="round" stroke-linejoin="round"/>
<path d="M8.99967 11.9091C10.4724 11.9091 11.6663 10.688 11.6663 9.1818C11.6663 7.67557 10.4724 6.45453 8.99967 6.45453C7.52692 6.45453 6.33301 7.67557 6.33301 9.1818C6.33301 10.688 7.52692 11.9091 8.99967 11.9091Z" stroke="white" stroke-width="1.3" stroke-linecap="round" stroke-linejoin="round"/>
</svg>
